<svg width="297" height="516" viewBox="0 0 297 516" fill="none" xmlns="http://www.w3.org/2000/svg">
<path d="M148.5 5C227.837 5 292 70.4511 292 151C292 231.549 227.837 297 148.5 297C69.1632 297 5 231.549 5 151C5 70.4511 69.1632 5 148.5 5Z" fill="white" stroke="black" stroke-width="10"/>
<path d="M158.53 488.37C153.901 498.647 139.28 498.567 134.765 488.239L22.5376 231.529C20.7649 227.474 26.3683 223.468 29.7527 226.319C61.1274 252.755 114.253 288.081 146.5 288.081C179.165 288.081 233.572 254.315 265.865 227.626C269.329 224.764 275.308 229.079 273.463 233.176L158.53 488.37Z" fill="black"/>
<path d="M139.661 62H159.371M261 142.882L242.827 124.939M242.827 124.939L179.334 62.2485C179.172 62.0893 178.955 62 178.728 62H159.371M242.827 124.939L243.386 186.265M243.386 186.265H224.934M243.386 186.265H257.902C258.378 186.265 258.763 186.65 258.763 187.126V211.138C258.763 211.614 258.378 212 257.902 212H242.827H124.563M224.934 186.265V162.126C224.934 161.65 224.548 161.265 224.072 161.265H203.965M224.934 186.265L124.563 187M124.563 212V187M124.563 212H46.8616C46.3857 212 46 211.614 46 211.138V99.2586C46 98.7828 46.3857 98.3971 46.8616 98.3971H69.485M179.082 128.544V99.2586C179.082 98.7828 178.696 98.3971 178.22 98.3971H159.371M179.082 128.544H203.103C203.579 128.544 203.965 128.93 203.965 129.406V161.265M179.082 128.544H87.0988M203.965 161.265H103.315M87.0988 128.544V160.403C87.0988 160.879 87.4846 161.265 87.9604 161.265H103.315M87.0988 128.544H70.3466C69.8708 128.544 69.485 128.158 69.485 127.683V98.3971M124.563 187H104.176C103.7 187 103.315 186.614 103.315 186.138V161.265M159.371 62V98.3971M159.371 98.3971H87.0988H69.485" stroke="black" stroke-width="11" stroke-linecap="round" stroke-linejoin="round"/>
</svg>
