<svg width="466" height="466" viewBox="0 0 466 466" fill="none" xmlns="http://www.w3.org/2000/svg">
<g clip-path="url(#clip0_7_27)">
<path d="M240.844 422.407C213.077 422.407 143.503 405.542 89.93 391.032C88.9048 390.793 87.9381 390.35 87.0876 389.73C86.2371 389.109 85.5202 388.324 84.9795 387.421C84.4389 386.518 84.0856 385.515 83.9407 384.472C83.7958 383.429 83.8622 382.368 84.1361 381.352C84.41 380.335 84.8856 379.384 85.5347 378.556C86.1838 377.727 86.9931 377.037 87.9144 376.528C88.8356 376.019 89.85 375.7 90.897 375.591C91.944 375.482 93.0023 375.585 94.0087 375.893C167.112 395.581 220.607 406.719 240.844 406.719C267.199 406.719 370.422 350.479 431.839 298.083C434.078 296.333 435.665 293.883 436.348 291.124C437.03 288.366 436.768 285.458 435.604 282.866C434.679 281.148 433.395 279.65 431.839 278.474C422.819 271.728 413.642 271.65 400.464 278.474C356.325 300.111 311.054 319.356 264.846 336.125L261.708 337.145C252.801 339.584 243.521 340.355 234.333 339.42L176.368 333.694C175.338 333.596 174.337 333.296 173.423 332.811C172.509 332.327 171.699 331.667 171.04 330.869C170.381 330.072 169.885 329.152 169.581 328.163C169.278 327.174 169.172 326.135 169.27 325.105C169.367 324.075 169.667 323.074 170.152 322.16C170.636 321.246 171.296 320.436 172.094 319.777C172.891 319.117 173.811 318.622 174.8 318.318C175.789 318.014 176.828 317.908 177.858 318.006L235.902 323.811C242.679 324.523 249.527 324.046 256.139 322.399C257.744 321.014 258.772 319.077 259.019 316.971C259.265 314.866 258.714 312.744 257.472 311.025C251.479 305.645 244.306 301.749 236.53 299.652L233 298.711C230.176 297.691 213.155 295.338 196.762 292.985C157.543 287.416 100.284 279.336 67.9675 269.453V380.913C68.2068 387.387 65.9176 393.701 61.5843 398.517C57.251 403.334 51.2136 406.275 44.75 406.719H21.2188C19.1385 406.719 17.1434 405.893 15.6724 404.422C14.2014 402.951 13.375 400.956 13.375 398.875C13.375 396.795 14.2014 394.8 15.6724 393.329C17.1434 391.858 19.1385 391.032 21.2188 391.032H44.75C47.1137 390.627 49.2365 389.342 50.6917 387.436C52.1468 385.529 52.8264 383.143 52.5938 380.756V253.766C52.5938 248.197 48.9856 243.412 44.75 243.412H21.2188C19.1385 243.412 17.1434 242.586 15.6724 241.115C14.2014 239.644 13.375 237.649 13.375 235.568C13.375 233.488 14.2014 231.493 15.6724 230.022C17.1434 228.551 19.1385 227.725 21.2188 227.725H44.75C51.1107 228.066 57.0977 230.836 61.4762 235.462C65.8546 240.089 68.2904 246.219 68.2812 252.589C97.6169 263.1 160.759 271.963 199.272 277.454C212.628 278.803 225.885 281.003 238.961 284.043L241.314 284.906C252.197 287.739 262.047 293.616 269.709 301.848C272.789 305.933 274.417 310.93 274.337 316.045C304.692 304.672 353.637 283.337 393.248 264.041C411.994 254.942 427.211 255.491 441.095 265.924C444.539 268.446 447.353 271.73 449.317 275.52C451.282 279.309 452.344 283.502 452.42 287.77C452.496 292.038 451.584 296.266 449.755 300.123C447.927 303.98 445.231 307.363 441.879 310.006C385.639 358.009 275.905 422.407 240.844 422.407ZM280.062 234.156C262.191 234.156 244.721 228.857 229.861 218.928C215.002 208.999 203.42 194.887 196.581 178.376C189.742 161.865 187.952 143.696 191.439 126.168C194.925 108.64 203.531 92.5394 216.168 79.9023C228.805 67.2652 244.906 58.6593 262.434 55.1727C279.962 51.6862 298.131 53.4756 314.642 60.3147C331.153 67.1539 345.265 78.7355 355.194 93.5952C365.123 108.455 370.423 125.925 370.423 143.796C370.381 167.749 360.848 190.708 343.911 207.645C326.974 224.582 304.015 234.115 280.062 234.156ZM280.062 69.4377C265.294 69.4377 250.857 73.8172 238.577 82.0223C226.297 90.2274 216.726 101.89 211.074 115.534C205.422 129.179 203.944 144.193 206.825 158.678C209.706 173.163 216.818 186.469 227.261 196.912C237.704 207.355 251.01 214.467 265.495 217.348C279.98 220.229 294.994 218.75 308.638 213.099C322.283 207.447 333.945 197.876 342.15 185.596C350.356 173.316 354.735 158.879 354.735 144.11C354.714 124.312 346.84 105.331 332.841 91.3317C318.842 77.3324 299.861 69.4585 280.062 69.4377ZM295.75 179.25H264.375C258.134 179.25 252.149 176.771 247.736 172.358C243.323 167.945 240.844 161.96 240.844 155.719V132.188C240.844 125.947 243.323 119.962 247.736 115.549C252.149 111.136 258.134 108.656 264.375 108.656H295.75C301.991 108.656 307.976 111.136 312.389 115.549C316.802 119.962 319.281 125.947 319.281 132.188V155.719C319.281 161.96 316.802 167.945 312.389 172.358C307.976 176.771 301.991 179.25 295.75 179.25ZM264.375 124.344C262.295 124.344 260.3 125.17 258.829 126.641C257.358 128.112 256.531 130.107 256.531 132.188V155.719C256.531 157.799 257.358 159.794 258.829 161.265C260.3 162.736 262.295 163.563 264.375 163.563H295.75C297.83 163.563 299.825 162.736 301.296 161.265C302.767 159.794 303.594 157.799 303.594 155.719V132.188C303.594 130.107 302.767 128.112 301.296 126.641C299.825 125.17 297.83 124.344 295.75 124.344H264.375ZM436.938 127.168H436.153L412.622 124.971C411.592 124.879 410.59 124.584 409.674 124.104C408.758 123.624 407.945 122.969 407.282 122.175C406.619 121.381 406.12 120.464 405.811 119.477C405.502 118.49 405.391 117.452 405.484 116.422C405.577 115.392 405.871 114.39 406.351 113.474C406.831 112.558 407.487 111.745 408.281 111.082C409.075 110.419 409.991 109.919 410.978 109.611C411.965 109.302 413.004 109.191 414.034 109.284L437.565 111.48C439.645 111.574 441.603 112.49 443.008 114.027C444.413 115.564 445.149 117.597 445.056 119.677C444.962 121.757 444.046 123.715 442.509 125.12C440.972 126.525 438.939 127.261 436.859 127.168H436.938ZM395.915 96.8909C394.152 96.898 392.438 96.3109 391.049 95.2244C389.66 94.1378 388.679 92.6152 388.262 90.9021C387.845 89.189 388.017 87.3854 388.751 85.7823C389.485 84.1792 390.737 82.87 392.307 82.0662L434.035 60.2605C434.954 59.7571 435.964 59.4429 437.007 59.3363C438.049 59.2297 439.102 59.333 440.103 59.6401C441.105 59.9472 442.035 60.4518 442.839 61.1242C443.642 61.7965 444.302 62.6231 444.781 63.5549C445.748 65.3961 445.944 67.5458 445.326 69.5315C444.709 71.5171 443.328 73.1762 441.487 74.144L399.837 95.9496C398.634 96.5998 397.282 96.9243 395.915 96.8909ZM377.56 66.2218C376.806 66.3323 376.04 66.3323 375.286 66.2218C373.3 65.6073 371.639 64.2294 370.668 62.3909C369.697 60.5524 369.496 58.4038 370.109 56.4171L376.933 33.9055C377.68 32.1594 379.035 30.7436 380.747 29.9211C382.459 29.0986 384.411 28.9251 386.241 29.4329C388.072 29.9408 389.655 31.0954 390.699 32.6825C391.742 34.2695 392.174 36.1813 391.914 38.0627L385.09 60.5743C384.615 62.2036 383.624 63.6347 382.267 64.653C380.909 65.6713 379.257 66.2218 377.56 66.2218Z" fill="black"/>
</g>
<defs>
<clipPath id="clip0_7_27">
<rect width="466" height="466" fill="white"/>
</clipPath>
</defs>
</svg>
