<svg width="297" height="516" viewBox="0 0 297 516" fill="none" xmlns="http://www.w3.org/2000/svg">
<path d="M148.5 5C227.837 5 292 70.4511 292 151C292 231.549 227.837 297 148.5 297C69.1632 297 5 231.549 5 151C5 70.4511 69.1632 5 148.5 5Z" fill="white" stroke="black" stroke-width="10"/>
<path d="M158.53 488.37C153.901 498.647 139.28 498.567 134.765 488.239L22.5376 231.529C20.7649 227.474 26.3683 223.468 29.7527 226.319C61.1274 252.755 114.253 288.081 146.5 288.081C179.165 288.081 233.572 254.315 265.865 227.626C269.329 224.764 275.308 229.079 273.463 233.176L158.53 488.37Z" fill="black"/>
<path d="M164.545 197C202.555 197 236.852 197 255.43 197C257.252 197 257.811 193.204 256.156 192.442C221.351 176.417 208.823 132.668 206.792 109.408C206.722 108.616 206.065 108.022 205.271 108.022H178.13M164.545 197V108.022M164.545 197C142.297 197 118.776 197 96.3911 197M164.545 108.022L142.196 137.2L119.294 167.1L96.3911 197M164.545 108.022H121.719M164.545 108.022H178.13M96.3911 197C73.5587 197 51.9075 197 33.9922 197C32.75 197 32.0379 195.588 32.7735 194.587L52.974 167.1L74.9479 137.2L95.9369 108.64C96.2225 108.252 96.6759 108.022 97.1582 108.022H121.719M121.719 108.022V67M178.13 108.022V67M199.543 67H102.378" stroke="black" stroke-width="11" stroke-linecap="round" stroke-linejoin="round"/>
</svg>
