<svg width="466" height="466" viewBox="0 0 466 466" fill="none" xmlns="http://www.w3.org/2000/svg">
<g clip-path="url(#clip0_2_8)">
<path d="M376.146 239.227L419.318 196.064C458.777 156.608 458.777 92.4004 419.318 52.9413C400.203 33.8262 374.789 23.3 347.757 23.3C320.725 23.3 295.31 33.8262 276.195 52.9413L233.04 96.0903L189.877 52.9182C150.418 13.4591 86.2135 13.4591 46.751 52.9182C7.29189 92.3774 7.29189 156.582 46.751 196.041L89.9001 239.2L46.728 282.362C27.6128 301.478 17.0867 326.892 17.0867 353.924C17.0867 380.956 27.6128 406.37 46.728 425.485C65.8431 444.6 91.2575 455.127 118.289 455.127C145.321 455.127 170.736 444.6 189.851 425.485L233.007 382.34L276.172 425.508C295.903 445.24 321.819 455.104 347.734 455.104C373.652 455.104 399.567 445.24 419.295 425.508C458.754 386.049 458.754 321.845 419.298 282.385L376.146 239.227ZM180.919 362.879L216.698 327.099L234.585 344.986L198.799 380.761L180.919 362.879ZM252.478 327.096L216.698 291.317L189.864 318.155L154.082 282.372L180.919 255.538L145.134 219.752L215.13 149.772L250.906 185.548L277.744 158.714L313.526 194.493L286.688 221.33L322.474 257.116L252.478 327.096ZM127.241 237.642L145.137 255.538L109.358 291.317L91.4584 273.418L127.241 237.642ZM286.688 113.986L250.906 149.769L233.023 131.883L268.809 96.1068L286.688 113.986ZM340.367 239.227L322.471 221.33L358.25 185.548L376.149 203.451L340.367 239.227ZM347.757 48.6023C368.032 48.6023 387.094 56.4961 401.429 70.8308C431.024 100.426 431.024 148.58 401.432 178.175L394.042 185.561L358.253 149.769L331.416 176.603L295.633 140.821L322.471 113.986L286.698 78.214L294.085 70.8308C308.423 56.4961 327.482 48.6023 347.757 48.6023ZM64.6439 178.152C35.0487 148.556 35.0487 100.403 64.6439 70.8078C94.2358 41.2126 142.393 41.2126 171.984 70.8078L215.147 113.98L107.793 221.311L64.6439 178.152ZM118.289 429.824C98.0146 429.824 78.9555 421.931 64.6175 407.596C35.0256 378.001 35.0256 329.847 64.6175 300.252L73.5656 291.307L109.358 327.099L136.192 300.262L171.975 336.044L145.137 362.882L180.909 398.651L171.961 407.596C157.627 421.931 138.564 429.824 118.289 429.824ZM401.406 407.619C371.81 437.214 323.657 437.214 294.065 407.619L250.899 364.45L358.257 257.116L401.406 300.275C431.001 329.87 431.001 378.024 401.406 407.619Z" fill="black"/>
<path d="M143.562 113.986L161.455 96.0969L179.345 113.986L161.455 131.876L143.562 113.986ZM107.783 185.551L89.8936 167.658L107.783 149.769L125.676 167.658L107.783 185.551ZM358.25 328.678L340.36 310.785L358.25 292.895L376.139 310.785L358.25 328.678ZM304.581 382.349L286.688 364.457L304.581 346.567L322.471 364.457L304.581 382.349Z" fill="black"/>
</g>
<defs>
<clipPath id="clip0_2_8">
<rect width="431.827" height="431.827" fill="white" transform="translate(17.0867 23.3)"/>
</clipPath>
</defs>
</svg>
