<svg width="466" height="466" viewBox="0 0 466 466" fill="none" xmlns="http://www.w3.org/2000/svg">
<g clip-path="url(#clip0_5_6)">
<path d="M208 240.333C239.061 240.333 264.24 217.052 264.24 188.333C264.24 159.614 239.061 136.333 208 136.333C176.939 136.333 151.76 159.614 151.76 188.333C151.76 217.052 176.939 240.333 208 240.333Z" stroke="black" stroke-width="34.8154" stroke-linecap="round" stroke-linejoin="round"/>
<path d="M208.129 19C257.072 19 304.259 36.9649 339.251 69.3184C374.288 101.714 394.258 145.958 394.258 192.408C394.258 227.826 381.613 261.229 363.471 291H346.5V248.689C354.614 230.395 359.442 211.479 359.442 192.408C359.442 156.111 343.86 120.996 315.615 94.8809C287.324 68.723 248.681 53.8164 208.129 53.8164C167.577 53.8165 128.934 68.7232 100.644 94.8809C72.3985 120.996 56.8164 156.111 56.8164 192.408C56.8164 245.552 94.3067 297.497 135.927 338.117C156.288 357.989 176.719 374.262 192.088 385.577C198.454 390.264 203.926 394.08 208.129 396.93C212.332 394.08 217.805 390.264 224.171 385.577C239.539 374.262 259.97 357.989 280.331 338.117C281.388 337.086 282.44 336.046 283.491 335H302V365.596C281.077 385.718 260.421 402.122 244.812 413.614C236.664 419.614 229.853 424.303 225.046 427.513C222.642 429.118 220.735 430.355 219.411 431.203C218.749 431.627 218.232 431.955 217.871 432.182C217.691 432.295 217.549 432.383 217.447 432.446C217.396 432.478 217.355 432.504 217.324 432.522C217.309 432.532 217.296 432.54 217.286 432.546C217.281 432.549 217.276 432.553 217.273 432.555C217.268 432.558 217.263 432.56 208.129 417.741L217.264 432.561C211.663 436.013 204.595 436.012 198.995 432.561L208.129 417.741C199.037 432.491 198.991 432.557 198.985 432.555C198.983 432.553 198.977 432.549 198.972 432.546C198.962 432.54 198.949 432.532 198.934 432.522C198.903 432.504 198.862 432.478 198.812 432.446C198.71 432.383 198.568 432.295 198.388 432.182C198.026 431.955 197.509 431.627 196.847 431.203C195.523 430.355 193.616 429.118 191.212 427.513C186.405 424.303 179.594 419.614 171.445 413.614C155.179 401.638 133.429 384.328 111.61 363.033C68.87 321.32 22 260.598 22 192.408C22 145.958 41.9702 101.714 77.0078 69.3184C111.999 36.965 159.186 19.0001 208.129 19ZM335 330.387C327.977 338.79 320.729 346.734 313.5 354.166V301.664C321.4 291.733 328.677 281.408 335 270.791V330.387Z" fill="black"/>
<path d="M324.667 188C328.767 188 332.699 189.629 335.598 192.528C338.497 195.427 340.126 199.359 340.126 203.459V296.209H432.876C436.976 296.209 440.908 297.837 443.807 300.736C446.705 303.635 448.334 307.567 448.334 311.667C448.334 315.767 446.705 319.699 443.807 322.598C440.908 325.497 436.976 327.125 432.876 327.125H340.126V419.875C340.126 423.975 338.497 427.907 335.598 430.806C332.699 433.705 328.767 435.334 324.667 435.334C320.567 435.334 316.635 433.705 313.736 430.806C310.838 427.907 309.209 423.975 309.209 419.875V327.125H216.459C212.359 327.125 208.427 325.497 205.528 322.598C202.629 319.699 201 315.767 201 311.667C201 307.567 202.629 303.635 205.528 300.736C208.427 297.837 212.359 296.209 216.459 296.209H309.209V203.459C309.209 199.359 310.837 195.427 313.736 192.528C316.635 189.629 320.567 188 324.667 188Z" fill="black"/>
</g>
<defs>
<clipPath id="clip0_5_6">
<rect width="466" height="466" fill="white"/>
</clipPath>
</defs>
</svg>
